<svg xmlns="http://www.w3.org/2000/svg" height="48" viewBox="0 -960 960 960" width="48"><path d="M745-557h-90q-14.775 0-24.388-9.585Q621-576.169 621-591.36q0-16.04 8.912-25.34Q638.825-626 655-626h90v-89q0-13.925 8.958-23.963Q762.916-749 778.158-749q15.242 0 25.542 8.912Q814-731.175 814-715v89h88q14.35 0 24.675 9.675Q937-606.649 937-592.009q0 16.041-9.625 25.525Q917.75-557 902-557h-88v89q0 14.9-10.375 24.95-10.376 10.05-24.8 10.05-16.25 0-25.038-10.05Q745-453.1 745-468v-89Zm-383.044 64q-76.826 0-124.391-48.065Q190-589.13 190-665.296q0-76.167 47.406-123.935Q284.812-837 361.637-837q76.825 0 125.094 47.656Q535-741.688 535-664.796q0 75.666-48.109 123.731Q438.781-493 361.956-493ZM20-221v-25.217q0-42.817 21.508-75.679Q63.016-354.757 102-372q76-35 136.151-48.5Q298.302-434 361.192-434 426-434 486-420t136 48q38.984 17.097 60.992 49.49Q705-290.117 705-246.217V-221q0 38.15-26.894 64.575Q651.213-130 613-130H111q-36.75 0-63.875-26.425T20-221Z"/></svg>