<svg xmlns="http://www.w3.org/2000/svg" height="48" viewBox="0 -960 960 960" width="48"><path d="M190-58q-37.175 0-64.088-27.612Q99-113.225 99-149v-601q0-37.588 26.912-64.794Q152.825-842 190-842h59v-22q0-15.375 12.277-27.188Q273.554-903 288.877-903q17.148 0 28.136 11.812Q328-879.375 328-864v22h304v-22q0-15.375 11.577-27.188Q655.154-903 671.377-903q16.648 0 28.136 11.812Q711-879.375 711-864v22h59q37.588 0 64.794 27.206Q862-787.588 862-750v601q0 35.775-27.206 63.388Q807.588-58 770-58H190Zm0-91h580v-419H190v419Zm290.404-246q-18.822 0-32.113-13.177T435-439.877q0-18.523 13.379-31.823t32.2-13.3q18.821 0 31.621 13.177 12.8 13.177 12.8 31.7T512.112-408.3Q499.225-395 480.404-395Zm-160.281 0q-18.523 0-31.823-13.177t-13.3-31.7q0-18.523 13.177-31.823t31.7-13.3q18.523 0 31.823 13.177t13.3 31.7q0 18.523-13.177 31.823t-31.7 13.3Zm319.298 0Q622-395 608.5-408.177t-13.5-31.7q0-18.523 13.588-31.823 13.587-13.3 31.508-13.3 17.922 0 31.413 13.177t13.491 31.7q0 18.523-13.379 31.823t-32.2 13.3ZM480.404-235q-18.822 0-32.113-13.588Q435-262.175 435-280.096q0-17.922 13.379-31.413t32.2-13.491q18.821 0 31.621 13.379 12.8 13.379 12.8 32.2Q525-262 512.112-248.5 499.225-235 480.404-235Zm-160.281 0q-18.523 0-31.823-13.588-13.3-13.587-13.3-31.508 0-17.922 13.177-31.413t31.7-13.491q18.523 0 31.823 13.379t13.3 32.2Q365-262 351.823-248.5t-31.7 13.5Zm319.298 0Q622-235 608.5-248.588 595-262.175 595-280.096q0-17.922 13.588-31.413Q622.175-325 640.096-325q17.922 0 31.413 13.379t13.491 32.2Q685-262 671.621-248.5t-32.2 13.5Z"/></svg>