<svg xmlns="http://www.w3.org/2000/svg" height="48" viewBox="0 -960 960 960" width="48"><path d="M479.706-262q74.853 0 125.073-49.875Q655-361.75 655-436.029q0-74.53-50.397-125.25Q554.206-612 479.853-612q-75.353 0-125.103 50.637Q305-510.725 305-436.029q0 74.529 49.843 124.279T479.706-262Zm.04-77Q438-339 410-366.908q-28-27.909-28-69.5Q382-479 410.049-507.5q28.05-28.5 70-28.5Q521-536 550-507.887q29 28.112 29 71Q579-395 550.346-367q-28.653 28-70.6 28ZM150-99q-37.175 0-64.088-26.912Q59-152.825 59-190v-493q0-37.225 26.912-64.613Q112.825-775 150-775h126l55-61q13-13 29.677-19.5T396-862h170q16.292 0 33.146 6.5T629-836l57 61h124q37.225 0 64.613 27.387Q902-720.225 902-683v493q0 37.175-27.387 64.088Q847.225-99 810-99H150Z"/></svg>