<svg xmlns="http://www.w3.org/2000/svg" height="48" viewBox="0 -960 960 960" width="48"><path d="m419-413-79-80q-12.8-12-31.511-12T276-492.5Q263-479 263-460t14 30l110 111q12.273 14 31.636 14Q438-305 452-319l227-227q14-12.8 14-31.011T679.161-610q-13.84-12-33.111-11.5-19.272.5-32.05 12.5L419-413Zm61.138 354q-86.778 0-164.105-32.604-77.328-32.603-134.577-89.852-57.249-57.249-89.852-134.439Q59-393.084 59-479.862q0-87.034 32.662-164.087 32.663-77.053 90.017-134.494 57.355-57.442 134.354-90.5Q393.033-902 479.779-902q87.107 0 164.316 32.963 77.208 32.963 134.56 90.257 57.351 57.294 90.348 134.45Q902-567.173 902-479.917q0 87.193-33.057 164.003-33.058 76.809-90.5 134.199-57.441 57.39-134.356 90.053Q567.172-59 480.138-59Z"/></svg>