<svg xmlns="http://www.w3.org/2000/svg" height="48" viewBox="0 -960 960 960" width="48"><path d="M325-195q-36.413 0-63.706-27.612Q234-250.225 234-286v-542q0-36.188 27.294-64.094Q288.587-920 325-920h422q36.188 0 63.594 27.906T838-828v542q0 35.775-27.406 63.388Q783.188-195 747-195H325ZM174-44q-36.825 0-63.912-27.406Q83-98.812 83-135v-588q0-19.025 12.483-32.013Q107.965-768 127.481-768 148-768 161-755.013q13 12.988 13 32.013v588h467q19.45 0 32.725 12.5Q687-110 687-90.184q0 20.816-13.275 33.5Q660.45-44 641-44H174Z"/></svg>