<svg xmlns="http://www.w3.org/2000/svg" height="48" viewBox="0 -960 960 960" width="48"><path d="M479.511-83Q468-83 454.91-87q-13.089-4-22.91-13-48-38-99.503-89.226t-94.5-109.5Q195-357 167-421.938 139-486.875 139-555q0-159.719 103.253-253.86Q345.506-903 480-903q134.494 0 238.247 94.14Q822-714.719 822-555q0 68.125-28.5 133.062Q765-357 722.003-298.726t-94.5 109.5Q576-138 530-100q-11.955 9-25.466 13-13.512 4-25.023 4Zm.622-401Q512-484 534.5-506.133q22.5-22.133 22.5-54T534.367-614.5q-22.633-22.5-54.5-22.5T426-614.367q-22 22.633-22 54.5T426.133-506q22.133 22 54 22Z"/></svg>