<svg xmlns="http://www.w3.org/2000/svg" height="48" viewBox="0 -960 960 960" width="48"><path d="M145-205q-20.75 0-33.375-13.36Q99-231.719 99-251.86q0-20.14 12.625-32.64T145-297h671q19.775 0 32.888 12.675Q862-271.649 862-251.509q0 20.141-13.112 33.325Q835.775-205 816-205H145Zm0-229q-20.75 0-33.375-13.36Q99-460.719 99-479.86q0-20.14 12.625-32.64T145-525h671q19.775 0 32.888 12.675Q862-499.649 862-479.509q0 19.141-13.112 32.325Q835.775-434 816-434H145Zm0-229q-20.75 0-33.375-12.86Q99-688.719 99-709.86 99-729 111.625-742T145-755h671q19.775 0 32.888 13.175Q862-728.649 862-709.509q0 21.141-13.112 33.825Q835.775-663 816-663H145Z"/></svg>