<svg xmlns="http://www.w3.org/2000/svg" height="48" viewBox="0 -960 960 960" width="48"><path d="M22-246.138q0-41.96 21-75.411t60.044-50.473Q178-404 238.701-419 299.402-434 363-434q65.938 0 125.969 15Q549-404 624-372q39.188 15.696 60.594 49.217Q706-289.261 706-246.217V-221q0 38-27 64.5T614-130H113q-37 0-64-26.5T22-221v-25.138ZM738-130q10-21 19-43.5t9-47.5v-19.952Q766-310 737-355.5T640-435q62 9 122.5 25t98.5 34q35 19 56.5 53.5T939-241v20q0 38-27.5 64.5T847.844-130H738ZM364-494q-72 0-115.5-43.5t-43.5-115q0-71.5 43.5-115.5t115-44q70.5 0 115.5 43.888Q524-724.225 524-653q0 72-44.888 115.5Q434.225-494 364-494Zm386-159q0 71-44.377 115t-114.588 44Q578-494 567.5-495.5T543-502q26-27.412 38.5-65.257 12.5-37.846 12.5-85.449 0-46.603-12.5-83.448Q569-773 543-804q10.75-3.75 23.5-5.875T591-812q70.225 0 114.612 44.388Q750-723.225 750-653Z"/></svg>