<svg xmlns="http://www.w3.org/2000/svg" height="48" viewBox="0 -960 960 960" width="48"><path d="M227-38q-58.917 0-97.958-39.75Q90-117.5 90-175v-100q0-19.65 13.312-32.825Q116.625-321 136-321h93v-546q0-8.5 6.5-11.25t12.794 3.544L277-846q5.455 7 16.227 6.5Q304-840 310-847l32-31q4.818-5 15.909-5Q369-883 374-878l30 31q4.818 7 15.955 7 11.136 0 17.045-7l32-31q4.273-5 15.409-5 11.136 0 17.591 5l30 31q5.727 7 16.864 7Q560-840 565-847l32-31q3.636-5 15.136-5T630-878l30 31q5.455 7 16.227 7Q687-840 693-847l31-31q4.545-5 16.045-5 11.5 0 16.955 5l31 31q4.818 7 15.955 7.5 11.136.5 17.045-6.5l30-29q5.118-6 12.559-3.042Q871-875.083 871-867v692q0 57.5-40.042 97.25Q790.917-38 734-38H227Zm505.5-92q18.5 0 31-12.885T776-174.6V-775H323v504h324q18.8 0 32.4 13.175Q693-244.65 693-225v50q0 19 10 32t29.5 13ZM405-674h162q11.8 0 20.4 8.456 8.6 8.456 8.6 20.316t-8.6 20.044Q578.8-617 567-617H405q-11.375 0-19.688-8.439-8.312-8.438-8.312-20 0-11.561 8.312-20.061Q393.625-674 405-674Zm0 132h162q11.8 0 20.4 8.375 8.6 8.376 8.6 20.116 0 11.741-8.6 20.125T567-485H405q-11.375 0-19.688-8.56-8.312-8.559-8.312-20.3 0-11.74 8.312-19.94Q393.625-542 405-542Zm284.421-75Q678-617 669.5-625.763t-8.5-19.5Q661-656 669.281-665q8.28-9 20-9 11.719 0 20.219 8.781 8.5 8.78 8.5 19.815 0 11.036-8.579 19.72t-20 8.684Zm0 127Q678-490 669.5-498.884t-8.5-19.8q0-10.916 8.281-19.616 8.28-8.7 20-8.7 11.719 0 20.219 8.7 8.5 8.7 8.5 19.616t-8.579 19.8q-8.579 8.884-20 8.884Z"/></svg>