
<svg xmlns="http://www.w3.org/2000/svg" height="48" viewBox="0 -960 960 960" width="48"><path d="M700-650h171q16.1 0 28.05 12.068Q911-625.863 911-609.316q0 17.948-11.95 29.132Q887.1-569 871-569H700q-18.475 0-29.737-11.36Q659-591.719 659-609.167q0-17.447 11.125-29.14Q681.25-650 700-650ZM361.956-493q-76.826 0-124.391-48.065Q190-589.13 190-665.296q0-76.167 47.406-123.935Q284.812-837 361.637-837q76.825 0 125.094 47.656Q535-741.688 535-664.796q0 75.666-48.109 123.731Q438.781-493 361.956-493ZM20-221v-25.217q0-42.516 21.313-75.58Q62.624-354.861 102-372q76-35 136.192-48.5 60.193-13.5 123-13.5Q426-434 486-420t136 48q39.375 17.139 61.188 49.511Q705-290.117 705-246.217V-221q0 38.15-26.894 64.575Q651.213-130 613-130H111q-36.75 0-63.875-26.425T20-221Z"/></svg>